<?xml version="1.0" encoding="utf-8"?>
<!-- Generator: Adobe Illustrator 19.0.0, SVG Export Plug-In . SVG Version: 6.00 Build 0)  -->
<svg version="1.1" id="Capa_1" xmlns="http://www.w3.org/2000/svg" xmlns:xlink="http://www.w3.org/1999/xlink" x="0px" y="0px"
	 viewBox="0 0 262 67" style="enable-background:new 0 0 262 67;" xml:space="preserve">
<style type="text/css">
	.st0{fill-rule:evenodd;clip-rule:evenodd;fill:#FFFFFF;}
	.st1{fill-rule:evenodd;clip-rule:evenodd;fill:#F8CC39;}
	.st2{fill:#FFFFFF;}
</style>
<g id="XMLID_132_">
	<path id="XMLID_145_" class="st0" d="M43.46,2.75l-6.3,28.56l11.35,0.14c1.45,0.02,2.74,0.84,3.38,2.14
		c0.63,1.3,0.48,2.83-0.41,3.98L29.86,65.71c1.27,0.17,2.57,0.27,3.88,0.29c17.84,0.22,32.49-14.06,32.71-31.9
		C66.65,19.35,56.91,6.79,43.46,2.75"/>
	<path id="XMLID_144_" class="st0" d="M31.15,36.07l-11.35-0.14c-1.45-0.02-2.74-0.84-3.38-2.15c-0.63-1.31-0.48-2.83,0.41-3.98
		L38.44,1.67c-1.27-0.17-2.57-0.27-3.88-0.29C16.72,1.16,2.07,15.44,1.84,33.28c-0.18,14.75,9.55,27.31,23,31.35L31.15,36.07z"/>
	<path id="XMLID_141_" class="st1" d="M44.7,42.47c2.76-3.59,1.04-8.64-4.3-8.7l-6.25-0.08L27.2,65.2L44.7,42.47 M23.61,24.9
		c-2.76,3.59-1.04,8.64,4.3,8.71l6.25,0.08L41.1,2.18L23.61,24.9z"/>
	<path id="XMLID_138_" class="st2" d="M151.15,38.67h20.63h0.18l1.34-11.46c0.46-4.2-0.52-7.81-2.93-10.72
		c-2.43-2.95-5.82-4.44-10.05-4.44h-3.84h-3.8h-7.7c-4.24,0-7.95,1.49-11.03,4.44c-3.05,2.92-4.84,6.53-5.3,10.72l-1.42,12.87
		c-0.46,4.2,0.52,7.81,2.93,10.72c2.43,2.95,5.81,4.44,10.05,4.44h30.01l0.94-8.54h-30.07c-1.73,0-3.05-0.67-4.04-2.04
		c-1.05-1.45-1.46-3.07-1.25-4.95l0.12-1.05H151.15z M137.12,27.69c0.21-1.91,0.98-3.56,2.36-5.04c1.29-1.39,2.76-2.06,4.48-2.06
		h7.77h5.67h2.04c1.73,0,3.04,0.67,4.03,2.06c1.05,1.48,1.46,3.13,1.25,5.04l-0.27,2.45h-12.35h-15.24L137.12,27.69z"/>
	<path id="XMLID_135_" class="st2" d="M222.04,15.7c-2.49-2.37-5.9-3.57-10.13-3.57h-25.97L185,20.67h9.8h16.94h0.59
		c2.61,0,4.5,2.12,4.21,4.73l-0.09,0.81l-0.43,3.92l0,0h-12.54l-13.79,0c-5.68,0-10.88,3.86-12.86,9.09
		c-0.01,0.03-0.02,0.05-0.03,0.08c-0.01,0.02-0.01,0.04-0.02,0.06c-0.36,0.93-0.61,1.9-0.72,2.93c-0.03,0.24-0.05,0.47-0.06,0.7
		l0,0.02c-0.75,6.78,4.14,12.27,10.92,12.27l34.87,0.05l3.42-31C225.57,20.95,224.51,18.05,222.04,15.7 M214.19,46.71h-26.07
		c-2.22,0-3.82-1.8-3.57-4.02c0.24-2.22,2.24-4.02,4.46-4.02h26.07L214.19,46.71z"/>
	<path id="XMLID_134_" class="st2" d="M241.99,46.79c-1.78,0-3.11-0.67-4.07-2.04c-1.03-1.47-1.42-3.11-1.21-5.01l3.05-27.62h-8.54
		l-3.1,28.04c-0.46,4.2,0.52,7.81,2.93,10.72c2.43,2.95,5.81,4.44,10.05,4.44h18.95l0.94-8.54H241.99z"/>
	<path id="XMLID_133_" class="st2" d="M110.95,29.41H99.87c-0.86,0-1.63-0.02-2.31-0.05h-2.33c-2.33,0-4-1.89-3.75-4.21
		c0.26-2.33,2.35-4.21,4.68-4.21h26.33l0.96-8.72H96.2c-4.82,0-8.27,0.75-10.37,2.25c-3.52,2.53-5.52,5.96-5.99,10.28
		c-0.25,2.27-0.01,4.39,0.73,6.35c0.73,1.96,1.86,3.51,3.36,4.67c1.24,0.92,2.62,1.55,4.14,1.9c1.14,0.26,2.66,0.42,4.57,0.49h14.69
		c2.33,0,4,1.89,3.74,4.21c-0.26,2.33-2.35,4.21-4.68,4.21H78.09l-0.96,8.71h30.03c11.96,0,15.13-9.07,15.65-12.93
		C123.5,37.33,120.47,29.41,110.95,29.41"/>
</g>
</svg>
