<?xml version="1.0" encoding="UTF-8"?>
<!DOCTYPE svg PUBLIC "-//W3C//DTD SVG 1.1//EN" "http://www.w3.org/Graphics/SVG/1.1/DTD/svg11.dtd">
<!-- Creator: CorelDRAW 2021 (64-Bit) -->
<svg xmlns="http://www.w3.org/2000/svg" xml:space="preserve" width="84.6666mm" height="84.6666mm" version="1.1" style="shape-rendering:geometricPrecision; text-rendering:geometricPrecision; image-rendering:optimizeQuality; fill-rule:evenodd; clip-rule:evenodd"
viewBox="0 0 8466.66 8466.66"
 xmlns:xlink="http://www.w3.org/1999/xlink"
 xmlns:xodm="http://www.corel.com/coreldraw/odm/2003">
 <defs>
  <style type="text/css">
   <![CDATA[
    .fil5 {fill:#09579F}
    .fil8 {fill:#0A5FAF}
    .fil4 {fill:#F9C31B}
    .fil9 {fill:#F9C31B}
    .fil3 {fill:#09579F;fill-rule:nonzero}
    .fil10 {fill:#09579F;fill-rule:nonzero}
    .fil7 {fill:#0A5FAF;fill-rule:nonzero}
    .fil0 {fill:#F9C31B;fill-rule:nonzero}
    .fil6 {fill:white;fill-rule:nonzero}
    .fil2 {fill:white;fill-rule:nonzero}
    .fil11 {fill:url(#id0);fill-rule:nonzero}
    .fil1 {fill:url(#id1);fill-rule:nonzero}
   ]]>
  </style>
  <linearGradient id="id0" gradientUnits="userSpaceOnUse" x1="1306.82" y1="3641.45" x2="298.86" y2="4493.09">
   <stop offset="0" style="stop-opacity:1; stop-color:#0B64B9"/>
   <stop offset="0.678431" style="stop-opacity:1; stop-color:#09579F"/>
   <stop offset="1" style="stop-opacity:1; stop-color:#073867"/>
  </linearGradient>
  <linearGradient id="id1" gradientUnits="userSpaceOnUse" xlink:href="#id0" x1="1909.79" y1="4916.73" x2="3653.34" y2="399.06">
  </linearGradient>
 </defs>
 <g id="Capa_x0020_1">
  <metadata id="CorelCorpID_0Corel-Layer"/>
  <polygon class="fil0" points="5792.87,4865.28 6002.41,3099.73 1357.99,3085.45 1157.24,4910.2 "/>
  <polygon class="fil1" points="5841.16,3539.29 6074.66,1601.55 916.3,1588.68 693.01,3579.71 "/>
  <path class="fil2" d="M1818.44 3239.38l638.35 -1236.35 -295.33 0 -276.99 586.99c-60.53,128.41 -119.23,260.48 -165.09,381.55l-3.67 0c-7.33,-128.41 -16.51,-249.47 -29.35,-379.71l-55.03 -588.83 -273.31 0 154.08 1236.35 306.34 0zm763.08 0l170.6 -896.99 -264.15 0 -170.59 896.99 264.14 0zm71.54 -1008.89c84.38,0 155.92,-55.03 155.92,-148.58 0,-78.88 -55.03,-130.24 -132.07,-130.24 -80.71,0 -150.42,60.54 -152.25,150.42 0,78.88 55.03,128.4 128.4,128.4zm939.18 -293.49l-77.04 405.39c-39.13,-14.68 -86.83,-20.18 -123.51,-20.18 -338.74,0 -564.37,286.16 -564.37,597.99 0,218.29 126.57,339.36 278.82,339.36 104.25,0 214.01,-45.86 292.89,-165.09l3.66 0 -12.84 144.91 242.44 0c3.67,-106.39 20.18,-232.96 42.19,-348.52l181.6 -953.86 -263.84 0zm-162.03 858.47c-34.85,170.59 -128.4,251.3 -203.31,251.3 -77.04,0 -124.43,-60.53 -124.43,-168.75 0,-172.43 111.59,-355.87 269.04,-355.87 44.02,0 84.38,14.68 104.56,31.19l-45.86 242.13zm1132.4 201.78c-71.54,34.85 -154.09,56.86 -251.31,56.86 -77.04,0 -137.57,-23.84 -172.42,-69.7 -18.35,-25.68 -27.52,-66.04 -27.52,-91.72 359.53,9.17 581.49,-73.37 581.49,-302.67 0,-166.92 -130.24,-267.81 -311.84,-267.81 -324.68,0 -522.79,284.32 -522.79,557.64 0,232.96 132.07,377.87 388.88,377.87 99.06,0 229.29,-16.51 333.85,-69.7l-18.34 -190.77zm-117.4 -405.39c0,80.71 -102.72,110.06 -308.17,108.22 18.34,-84.38 88.05,-185.26 210.95,-185.26 60.53,0 97.22,31.18 97.22,77.04zm878.65 -269.65c-319.18,0 -535.63,254.97 -535.63,566.81 0,221.96 152.25,370.54 379.71,370.54 311.84,0 535.63,-240.3 535.63,-568.65 0,-203.61 -139.41,-368.7 -379.71,-368.7zm-34.85 199.94c106.39,0 141.24,88.05 141.24,170.6 0,154.08 -80.71,365.03 -225.62,365.03 -91.72,0 -143.08,-69.7 -143.08,-174.26 -1.84,-139.41 75.2,-361.37 227.46,-361.37z"/>
  <path class="fil3" d="M3205.15 5467.14c4.4,-39.87 20.52,-74.29 49.3,-105.23 26.93,-28.97 57.55,-43.07 93.6,-43.07l162.23 0 118.38 0 42.64 0c36.04,0 63.52,14.1 84.07,43.07 21.93,30.94 30.45,65.36 26.04,105.23l-5.65 51.07 -257.9 0 -318.36 0 5.65 -51.07zm293 229.31l430.99 0 3.81 0 27.92 -239.29c9.7,-87.65 -10.91,-162.96 -61.24,-223.87 -50.82,-61.51 -121.48,-92.7 -209.98,-92.7l-80.26 0 -79.41 0 -160.88 0c-88.53,0 -166.07,31.19 -230.48,92.7 -63.79,60.91 -101.04,136.22 -110.73,223.87l-29.7 268.71c-9.7,87.69 10.92,163.01 61.23,223.88 50.8,61.49 121.45,92.69 209.99,92.69l626.77 0 19.7 -178.25 -628.11 0c-36.15,0 -63.72,-13.88 -84.31,-42.46 -21.87,-30.36 -30.42,-64.13 -26.1,-103.29l2.44 -21.99 318.35 0z"/>
  <path class="fil3" d="M4814.99 5864.19l-544.54 0c-46.34,0 -79.78,-37.54 -74.65,-83.87 5.11,-46.33 46.85,-83.88 93.19,-83.88l544.54 0 -18.54 167.75zm164.1 -647.26c-52.08,-49.47 -123.25,-74.55 -211.58,-74.55l-542.47 0 -19.71 178.23 204.77 0 353.81 0 12.35 0c54.57,0 93.93,44.21 87.89,98.76l-1.86 16.85 -9.04 81.82 -0.01 0.09 -261.99 0 -288.15 0.07c-118.58,0 -227.21,80.49 -268.57,189.76 -0.22,0.56 -0.42,1.12 -0.66,1.67 -0.14,0.39 -0.29,0.79 -0.44,1.18 -7.63,19.37 -12.69,39.73 -15.05,61.1 -0.54,4.91 -0.95,9.76 -1.28,14.57l-0.03 0.39c-15.64,141.48 86.44,256.19 228.02,256.19l728.35 1.15 71.55 -647.23c7.78,-70.45 -14.38,-131.02 -65.9,-180.05z"/>
  <path class="fil3" d="M5395.69 5865.97c-37.16,0 -64.91,-13.92 -84.9,-42.57 -21.45,-30.66 -29.74,-64.86 -25.35,-104.53l63.73 -576.5 -178.38 0 -64.69 585.27c-9.68,87.67 10.93,163 61.25,223.88 50.78,61.49 121.43,92.69 209.99,92.69l395.83 0 19.71 -178.24 -397.19 0z"/>
  <path class="fil3" d="M2658.41 5503.21l-231.27 0c-18,0 -34.04,-0.35 -48.23,-1.03l-48.65 0c-48.59,0 -83.61,-39.34 -78.23,-87.9 5.37,-48.54 49.09,-87.89 97.66,-87.89l550.06 0 20.11 -182.02 -569.48 0c-100.58,0 -172.79,15.64 -216.59,46.89 -73.54,52.89 -115.28,124.41 -125.25,214.57 -5.24,47.49 -0.21,91.68 15.15,132.54 15.35,40.88 38.77,73.34 70.27,97.38 25.82,19.23 54.62,32.46 86.41,39.66 23.86,5.42 55.68,8.79 95.49,10.15l306.78 0c48.57,0 83.59,39.34 78.22,87.9 -5.36,48.54 -49.07,87.89 -97.66,87.89l-591.04 0 -20.1 181.92 627.36 0c249.89,0 316.07,-189.43 327.01,-269.81 14.3,-105.05 -48.98,-270.25 -248.02,-270.25z"/>
  <path class="fil4" d="M666.59 2092.76l120.71 -0.48c-9.6,44.25 -17.77,90.69 -28.23,134.65 -10.78,45.15 -18.09,90.95 -28.94,136.94 -10.2,43.09 -18.39,89.39 -28.04,134.57 -12.76,60.04 57.1,82.95 82.13,49.72 10.16,-7.46 99.39,-127.41 111,-142.72l298.58 -389.7c30.96,-41.69 28.45,-90.26 -14.67,-117.14 -22.53,-14 -42.72,-10.56 -77.69,-10.56 -57.63,0 -115.27,0 -172.92,0 28.33,-53.58 210.93,-338.19 242.89,-388.98 20.26,-32.22 38.99,-63.66 59.99,-95.22 10.97,-16.49 17.51,-35.17 9.79,-57.72 -6.52,-19.04 -23.72,-34.26 -44.72,-36.7l-318.17 -0.26 -155.48 0c-26.37,5.06 -36.21,20.19 -52,60.04 -8.49,21.31 -16.39,46.7 -24.21,67.53 -62.9,167.86 -124.87,357.97 -188.04,532.04 -15.98,44.08 -21,96.11 34.65,118.11 32.56,12.86 128.41,5.88 173.37,5.88z"/>
  <path class="fil5" d="M7350.79 1722.14c516.52,0 906.71,418.72 871.5,935.24 -11.44,167.85 -66.42,325.35 -153.12,461.53l0.03 0.02c-87,146.02 -203.47,258.31 -349.35,336.89 -147.79,86.79 -318.03,136.82 -496.54,136.82 -16.4,0 -32.67,-0.44 -48.8,-1.27 -27.17,1.2 -54.84,1.81 -83.03,1.83 -213.09,0 -373.31,0 -478,0 -80.41,0 -115.89,-27.16 -119.5,-62.17 -2.52,-24.55 15.61,-59.52 18.18,-87.53 9.07,-98.89 -16.96,-206.17 -70.98,-326.29 -6.16,-12.39 -12.05,-24.95 -17.64,-37.69l-0.48 -0.98 0.04 -0.02c-55.32,-126.57 -81.63,-269.64 -71.3,-421.14 35.2,-516.52 482.46,-935.24 998.99,-935.24z"/>
  <path class="fil6" d="M7558.99 2531.76l7.57 -111.09c3.64,-53.42 -12.21,-99.08 -47.55,-137.02 -35.35,-37.92 -79.72,-56.89 -133.14,-56.89l-474 0c-53.41,0 -100.37,18.97 -140.89,56.89 -40.51,37.94 -62.59,83.6 -66.23,137.02l-32.3 474c-3.64,53.42 12.21,99.08 47.55,137.01 35.35,37.93 79.73,56.9 133.14,56.9l473.99 0c53.43,0 100.38,-18.97 140.9,-56.9 40.36,-37.78 62.41,-83.23 66.18,-136.39l24.78 -363.53z"/>
  <path class="fil6" d="M7893.14 2436.59c-11.65,-23.57 -41.99,-32.42 -68.04,-17.68l-174.58 97.24 -44.43 25.04 -15.87 232.79 38.18 23.57c1.47,0 1.37,1.47 2.84,1.47l158.49 95.77c6.96,5.89 17.07,8.83 27.38,8.83 28,0 51.6,-22.09 53.51,-50.09l13.46 -197.42 14.72 -194.48c0.61,-8.84 -0.26,-17.68 -5.66,-25.04z"/>
  <path class="fil7" d="M6095.83 3226.16c0,-21.35 17.31,-38.66 38.66,-38.66 21.35,0 38.66,17.31 38.66,38.66l0 141.44c0,21.35 -17.31,38.66 -38.66,38.66 -21.35,0 -38.66,-17.31 -38.66,-38.66l0 -141.44z"/>
  <path class="fil7" d="M6063.77 3335.54c-21.35,0 -38.66,-17.31 -38.66,-38.66 0,-21.35 17.31,-38.66 38.66,-38.66l141.44 0c21.35,0 38.66,17.31 38.66,38.66 0,21.35 -17.31,38.66 -38.66,38.66l-141.44 0z"/>
  <path class="fil7" d="M6689.5 3775.89c0,-21.35 17.31,-38.66 38.66,-38.66 21.35,0 38.66,17.31 38.66,38.66l0 247.18c0,21.35 -17.31,38.66 -38.66,38.66 -21.35,0 -38.66,-17.31 -38.66,-38.66l0 -247.18z"/>
  <path class="fil7" d="M6851.74 3860.83c21.35,0 38.66,17.31 38.66,38.66 0,21.35 -17.31,38.66 -38.66,38.66l-247.16 0c-21.35,0 -38.66,-17.31 -38.66,-38.66 0,-21.35 17.31,-38.66 38.66,-38.66l247.16 0z"/>
  <path class="fil7" d="M6372.38 1892.32c0,33.77 -13.69,64.38 -35.83,86.52l-2.56 2.34c-21.94,20.76 -51.5,33.49 -83.96,33.49 -33.66,0 -64.21,-13.7 -86.37,-35.83 -22.29,-22.14 -35.99,-52.75 -35.99,-86.52 0,-33.62 13.75,-64.24 35.95,-86.42 22.02,-22.2 52.62,-35.94 86.41,-35.94 33.75,0 64.39,13.74 86.5,35.85 22.11,22.12 35.85,52.76 35.85,86.51zm-90.49 31.86c8.13,-8.13 13.18,-19.42 13.18,-31.86 0,-12.43 -5.07,-23.72 -13.2,-31.85 -8.13,-8.13 -19.42,-13.19 -31.84,-13.19 -12.43,0 -23.71,5.06 -31.84,13.19 -8.2,8.05 -13.2,19.33 -13.2,31.85 0,12.44 5.04,23.73 13.17,31.86 8.05,8.13 19.38,13.17 31.87,13.17 11.75,0 22.46,-4.45 30.46,-11.68l1.4 -1.49z"/>
  <path class="fil8" d="M6985.89 2439.86c-61.78,71.3 -76.78,281.71 -73.23,373.58 3.48,90.22 62.53,61.75 123.8,40.35 65.05,-22.71 249.61,-107.04 282.07,-149.38 64.02,-83.52 -259.36,-270.81 -332.64,-264.55z"/>
  <path class="fil9" d="M2467.9 3820.55l161.52 -47.77c56.79,-16.78 86.07,45.56 67.71,101.18l-306.13 926.79c-18.4,55.66 -78.96,101.18 -134.66,101.18l-306.67 0c-60.76,71.82 -115.66,139.4 -175.41,215.33 -194.36,247.07 -303.73,228 -343.8,-40.79 -8.86,-59.4 -21.52,-117.18 -35.06,-174.54l464.46 -269.83 608.04 -811.55z"/>
  <path class="fil10" d="M1657.86 4572.11l159.31 -831.72 -168.69 0 -159.31 831.72 168.69 0zm310.43 0l159.31 -831.72 -168.69 0 -159.31 831.72 168.69 0zm672.4 0c-2.34,-71.46 8.2,-183.92 22.26,-257.72l60.91 -299.89c-48.03,-15.22 -121.83,-28.11 -189.77,-28.11 -282.32,0 -410,206.17 -410,399.46 0,119.49 70.28,199.15 173.37,199.15 66.77,0 139.4,-31.63 192.12,-126.52l3.51 0c-3.51,41 -7.03,79.66 -8.2,113.63l155.8 0zm-133.54 -320.97c-25.77,140.57 -87.86,197.97 -138.23,197.97 -46.86,0 -69.12,-38.66 -69.12,-94.89 0,-106.6 79.66,-240.14 188.6,-240.14 16.4,0 32.8,2.34 45.69,4.68l-26.94 132.38zm420.73 320.97l47.06 -257.72c21.08,-112.46 80.83,-193.28 138.23,-193.28 41,0 53.88,31.62 53.88,70.28 0,19.92 -3.51,42.17 -8.2,65.6l-58.57 315.12 162.64 0 48.02 -260.06c22.26,-114.8 77.32,-190.94 133.55,-190.94 39.63,0 57.2,28.11 57.2,67.94 0,22.26 -3.51,46.86 -8.2,70.29l-57.2 312.77 162.63 0 62.09 -333.86c5.86,-29.29 10.54,-73.8 10.54,-98.4 0,-97.23 -51.54,-153.46 -140.57,-153.46 -73.61,0 -145.06,33.97 -196.61,107.77 -4.68,-50.37 -44.51,-107.77 -135.88,-107.77 -73.61,0 -143.9,31.63 -195.44,105.43l-2.34 0 10.54 -92.54 -145.45 0c-7.03,50.37 -16.4,113.63 -29.29,186.25l-71.46 386.58 162.83 0zm1341.11 0c-2.34,-71.46 8.2,-183.92 22.26,-257.72l60.91 -299.89c-48.03,-15.22 -121.83,-28.11 -189.77,-28.11 -282.32,0 -410,206.17 -410,399.46 0,119.49 70.28,199.15 173.37,199.15 66.77,0 139.4,-31.63 192.12,-126.52l3.51 0c-3.51,41 -7.03,79.66 -8.2,113.63l155.8 0zm-133.54 -320.97c-25.77,140.57 -87.86,197.97 -138.23,197.97 -46.86,0 -69.12,-38.66 -69.12,-94.89 0,-106.6 79.66,-240.14 188.6,-240.14 16.4,0 32.8,2.34 45.69,4.68l-26.94 132.38zm755.58 -510.75l-49.2 258.89c-24.99,-9.38 -55.45,-12.89 -78.88,-12.89 -216.33,0 -360.41,182.74 -360.41,381.89 0,139.4 80.83,216.72 178.06,216.72 66.57,0 136.66,-29.29 187.04,-105.43l2.34 0 -8.2 92.54 154.82 0c2.35,-67.94 12.89,-148.77 26.95,-222.57l115.97 -609.15 -168.49 0zm-103.48 548.23c-22.26,108.95 -82,160.49 -129.83,160.49 -49.2,0 -79.47,-38.66 -79.47,-107.77 0,-110.12 71.27,-227.26 171.81,-227.26 28.12,0 53.89,9.37 66.78,19.91l-29.29 154.63zm786.43 283.49c-2.34,-71.46 8.2,-183.92 22.26,-257.72l60.91 -299.89c-48.03,-15.22 -121.83,-28.11 -189.77,-28.11 -282.32,0 -410,206.17 -410,399.46 0,119.49 70.28,199.15 173.37,199.15 66.77,0 139.4,-31.63 192.12,-126.52l3.51 0c-3.51,41 -7.03,79.66 -8.2,113.63l155.8 0zm-133.54 -320.97c-25.77,140.57 -87.86,197.97 -138.23,197.97 -46.86,0 -69.12,-38.66 -69.12,-94.89 0,-106.6 79.66,-240.14 188.6,-240.14 16.4,0 32.8,2.34 45.69,4.68l-26.94 132.38z"/>
  <path class="fil11" d="M350.55 4226.79l208.66 -178.27 -86.83 -100.92c-7.34,-8.58 -9.72,-20.79 -6.18,-31.85 3.54,-11.07 12.18,-19.07 23.77,-22.16l577.21 -143.52c12.26,-3.04 25.26,1.32 33.15,11.28 8.61,9.35 10.89,22.88 5.97,34.51l-231.9 547.72c-4.87,10.96 -14.12,18.24 -25.6,20.01 -11.49,1.77 -23.17,-2.49 -30.5,-11.07l-86.12 -101.54 -208.66 178.26c-14.31,12.23 -35.54,10.56 -47.1,-3.7l-129.57 -151.66c-12.27,-13.65 -10.6,-34.87 3.7,-47.09z"/>
  <path class="fil7" d="M714.23 6966.07c-12.18,5.36 -28.75,11.21 -50.68,11.21 -31.67,0 -52.14,-19.98 -52.14,-55.56 0,-49.22 34.6,-99.9 89.66,-99.9 15.6,0 26.81,3.42 35.58,7.31l14.62 -44.34c-8.78,-3.9 -27.29,-9.26 -48.25,-9.26 -88.2,0 -151.06,70.17 -151.06,153.01 0,56.53 36.54,94.54 96,94.54 30.21,0 54.58,-6.33 68.22,-13.15l-1.95 -43.86zm213.1 -286.05l-47.27 72.12 42.89 0 64.32 -72.12 -59.94 0zm-24.36 95.51c-80.9,0 -136.94,69.68 -136.94,150.09 0,56.53 37.04,97.95 96.98,97.95 80.89,0 137.42,-69.2 137.42,-149.6 0,-52.63 -33.62,-98.44 -97.46,-98.44zm-6.82 43.86c34.59,0 45.32,30.21 45.32,54.58 0,47.27 -28.27,105.74 -70.66,105.74 -28.76,0 -46.3,-22.9 -46.3,-55.55 0,-44.35 26.32,-104.77 71.64,-104.77zm192.63 198.82l20.47 -112.57c8.77,-48.24 38.98,-83.82 65.3,-83.82 22.9,0 28.26,16.09 28.26,34.12 0,8.77 -0.97,18.03 -2.92,27.77l-25.34 134.5 54.58 0 21.44 -113.54c9.26,-50.2 38.01,-82.85 63.84,-82.85 20.95,0 29.24,13.65 29.24,33.63 0,9.74 -1.95,20.47 -3.42,30.21l-24.85 132.55 55.07 0 26.31 -138.88c1.95,-12.67 3.9,-30.22 3.9,-40.45 0,-42.4 -25.34,-63.35 -57.99,-63.35 -32.65,0.49 -62.86,16.08 -83.82,48.73 -1.95,-25.34 -19,-48.73 -56.04,-48.73 -30.7,0 -59.94,15.11 -82.35,46.78l-0.49 0 4.87 -41.42 -49.22 0c-2.43,20.47 -6.33,45.32 -11.69,73.58l-30.21 163.74 55.06 0zm496.72 -242.68c-80.9,0 -136.94,69.68 -136.94,150.09 0,56.53 37.04,97.95 96.98,97.95 80.89,0 137.42,-69.2 137.42,-149.6 0,-52.63 -33.62,-98.44 -97.46,-98.44zm-6.82 43.86c34.59,0 45.32,30.21 45.32,54.58 0,47.27 -28.27,105.74 -70.66,105.74 -28.76,0 -46.3,-22.9 -46.3,-55.55 0,-44.35 26.32,-104.77 71.64,-104.77zm349.55 -147.17l-20.96 110.13c-10.23,-4.38 -24.36,-6.82 -36.55,-6.82 -87.22,0 -148.14,76.51 -148.14,159.84 0,53.6 29.73,88.2 72.12,88.2 30.7,0 59.94,-15.11 81.38,-47.76l0.98 0 -4.87 42.4 52.14 0c1.46,-25.83 5.36,-57.02 10.72,-84.3l49.7 -261.69 -56.52 0zm-43.37 228.55c-9.75,49.22 -39.96,76.99 -65.3,76.99 -26.81,0 -38.01,-22.41 -38.01,-51.16 0,-53.12 36.06,-107.21 84.79,-107.21 14.13,0 25.83,4.38 32.65,9.26l-14.13 72.12zm250.14 -125.24c-80.9,0 -136.94,69.68 -136.94,150.09 0,56.53 37.04,97.95 96.98,97.95 80.89,0 137.42,-69.2 137.42,-149.6 0,-52.63 -33.62,-98.44 -97.46,-98.44zm-6.82 43.86c34.59,0 45.32,30.21 45.32,54.58 0,47.27 -28.27,105.74 -70.66,105.74 -28.76,0 -46.3,-22.9 -46.3,-55.55 0,-44.35 26.32,-104.77 71.64,-104.77zm137.08 253.89c23.39,-31.19 53.11,-83.82 73.58,-129.63l-63.84 4.87c-11.69,40.45 -33.14,91.62 -51.65,128.65l41.91 -3.89zm298.96 -55.07l18.03 -95.51c9.26,-50.68 35.09,-91.62 75.54,-91.62 3.9,0 7.79,0.49 10.72,0.98l11.21 -55.56c-3.9,-0.48 -8.29,-0.97 -12.19,-0.97 -32.65,0 -58.47,23.39 -74.55,55.55l-1.47 0c2.44,-17.54 3.9,-34.11 5.36,-50.19l-49.21 0c-2.93,21.44 -5.85,57.5 -12.19,91.13l-27.77 146.19 56.52 0zm297.41 -338.19l-46.78 72.12 42.88 0 63.84 -72.12 -59.94 0zm26.8 338.19c-0.97,-28.26 2.93,-72.61 9.75,-108.18l24.37 -123.78c-18.03,-5.85 -45.81,-10.72 -71.64,-10.72 -110.62,0 -167.15,86.25 -167.15,167.15 0,47.75 27.78,80.89 70.18,80.89 30.21,0 61.4,-15.11 84.79,-58.96l1.46 0c-1.95,20.46 -3.9,39.47 -4.38,53.6l52.62 0zm-41.9 -134.01c-11.21,60.43 -43.37,93.56 -69.69,93.56 -24.85,0 -34.11,-20.46 -34.11,-45.32 0,-54.09 40.45,-113.05 93.08,-113.05 10.23,0 17.54,0.97 23.39,2.43l-12.67 62.38zm143.41 230.5l19.01 -101.36 0.97 0c8.78,5.36 25.34,10.23 47.27,10.23 80.9,0 138.4,-76.99 138.4,-159.84 0,-46.29 -23.88,-88.2 -75.05,-88.2 -30.7,0 -59.94,16.08 -80.4,44.34l-0.98 0 5.36 -38.98 -51.16 0c-2.93,24.37 -8.29,59.94 -13.65,88.2l-46.29 245.61 56.52 0zm38.5 -204.67c10.24,-55.56 41.42,-88.21 70.17,-88.21 27.78,0 37.53,24.37 37.53,46.3 0,53.12 -36.06,111.59 -79.92,111.59 -16.57,0 -29.24,-4.38 -38.01,-11.69l10.23 -57.99zm255.98 108.18l45.32 -237.32 -57.01 0 -44.83 237.32 56.52 0zm26.81 -271.43c19,0 34.6,-13.16 35.08,-34.11 0,-18.03 -12.67,-30.7 -30.21,-30.7 -18.52,0 -34.11,14.13 -34.11,34.6 -0.49,17.54 11.69,30.21 29.24,30.21zm256.96 -74.56l-20.96 110.13c-10.23,-4.38 -24.36,-6.82 -36.55,-6.82 -87.22,0 -148.14,76.51 -148.14,159.84 0,53.6 29.73,88.2 72.12,88.2 30.7,0 59.94,-15.11 81.38,-47.76l0.98 0 -4.87 42.4 52.14 0c1.46,-25.83 5.36,-57.02 10.72,-84.3l49.7 -261.69 -56.52 0zm-43.37 228.55c-9.75,49.22 -39.96,76.99 -65.3,76.99 -26.81,0 -38.01,-22.41 -38.01,-51.16 0,-53.12 36.06,-107.21 84.79,-107.21 14.13,0 25.83,4.38 32.65,9.26l-14.13 72.12zm250.14 -125.24c-80.9,0 -136.94,69.68 -136.94,150.09 0,56.53 37.04,97.95 96.98,97.95 80.89,0 137.42,-69.2 137.42,-149.6 0,-52.63 -33.62,-98.44 -97.46,-98.44zm-6.82 43.86c34.59,0 45.32,30.21 45.32,54.58 0,47.27 -28.27,105.74 -70.66,105.74 -28.76,0 -46.3,-22.9 -46.3,-55.55 0,-44.35 26.32,-104.77 71.64,-104.77zm274.6 -38.5l47.27 218.8c0.97,4.39 0.97,7.31 -0.98,11.21 -10.72,19.01 -25.82,35.57 -41.91,47.27 -14.61,10.72 -31.18,17.06 -41.9,20.47l13.15 48.73c14.62,-2.93 45.81,-14.13 73.1,-40.94 31.68,-30.7 57.99,-72.61 86.74,-130.6l86.74 -174.94 -59.94 0 -51.16 116.95c-11.21,25.83 -17.06,41.91 -22.91,56.53l-0.97 0c-1.95,-16.08 -4.88,-33.62 -9.26,-58.96l-18.52 -114.52 -59.45 0zm342.82 225.14c12.67,9.26 38.5,17.05 66.28,17.05 57.01,0 100.87,-28.75 100.87,-80.89 0,-30.21 -23.39,-49.71 -49.22,-63.84 -19.98,-10.23 -30.7,-19.49 -30.7,-32.65 0,-16.08 14.62,-27.77 36.06,-27.77 19.5,0 35.58,5.84 44.35,10.72l14.62 -40.94c-10.72,-6.33 -31.19,-12.18 -56.04,-12.18 -56.04,0 -96,32.16 -96,77.97 0,27.29 19.49,47.76 46.78,61.89 23.39,12.18 31.19,21.44 31.19,36.55 0,15.59 -13.65,28.75 -36.55,29.23 -21.44,0 -44.83,-9.25 -57.02,-16.08l-14.62 40.94zm391.95 -42.89c-17.06,8.78 -38.5,15.6 -65.3,15.6 -22.42,0 -39.47,-8.29 -48.73,-24.37 -5.36,-9.26 -7.31,-25.34 -6.34,-33.62 91.62,1.95 155.45,-17.55 155.45,-78.46 0,-39.47 -29.72,-66.76 -76.5,-66.76 -81.87,0 -134.5,77.97 -134.5,149.6 0,57.99 31.67,97.95 97.46,97.95 28.75,0 60.43,-6.33 83.82,-18.51l-5.36 -41.43zm-18.52 -120.36c0,28.26 -37.52,36.55 -96,35.57 6.82,-28.75 30.21,-60.42 65.79,-60.42 18.03,0 30.21,9.25 30.21,24.85zm75.68 261.2c15.59,9.74 43.86,16.08 74.07,16.08 29.73,0 63.35,-5.85 88.2,-26.32 26.32,-22.41 39.96,-59.45 48.74,-105.74l36.06 -195.9c-21.93,-9.75 -51.66,-16.57 -82.36,-16.57 -98.44,0 -155.45,78.94 -155.45,157.89 0.49,44.83 27.29,83.82 74.56,83.82 30.21,0 55.06,-13.65 74.56,-41.91l0.97 0 -5.85 26.8c-11.69,55.06 -39.96,72.61 -76.99,72.61 -22.42,0 -48.73,-5.85 -62.86,-14.13l-13.65 43.37zm172.02 -207.6c-8.28,42.89 -36.55,76.51 -64.81,76.51 -28.27,0 -38.5,-23.39 -38.01,-48.24 0,-51.17 35.08,-104.78 84.79,-104.78 13.16,0 25.34,2.93 31.19,5.85l-13.16 70.66zm294.97 -115.49l-21.93 115.49c-9.26,49.22 -39.96,80.41 -66.27,80.41 -22.42,0 -30.21,-14.13 -30.21,-33.63 0,-9.25 1.46,-20.95 3.89,-32.65l24.37 -129.62 -56.53 0 -25.34 133.04c-3.41,16.08 -4.87,29.72 -4.87,42.39 0,48.73 27.29,67.25 61.89,67.25 29.72,0 59.45,-16.08 82.35,-46.78l0.98 0 -4.88 41.42 50.2 0c2.92,-20.47 6.33,-45.32 11.69,-73.58l31.19 -163.74 -56.53 0zm141.95 237.32l18.03 -95.51c9.26,-50.68 35.09,-91.62 75.54,-91.62 3.9,0 7.79,0.49 10.72,0.98l11.21 -55.56c-3.9,-0.48 -8.29,-0.97 -12.19,-0.97 -32.65,0 -58.47,23.39 -74.55,55.55l-1.47 0c2.44,-17.54 3.9,-34.11 5.36,-50.19l-49.21 0c-2.93,21.44 -5.85,57.5 -12.19,91.13l-27.77 146.19 56.52 0zm262.33 -242.68c-80.9,0 -136.94,69.68 -136.94,150.09 0,56.53 37.04,97.95 96.98,97.95 80.89,0 137.42,-69.2 137.42,-149.6 0,-52.63 -33.62,-98.44 -97.46,-98.44zm-6.82 43.86c34.59,0 45.32,30.21 45.32,54.58 0,47.27 -28.27,105.74 -70.66,105.74 -28.76,0 -46.3,-22.9 -46.3,-55.55 0,-44.35 26.32,-104.77 71.64,-104.77z"/>
 </g>
</svg>
